<?xml version="1.0" encoding="utf-8" ?>
<svg baseProfile="full" height="86.1160085982192" version="1.1" width="91.25775543041527" xmlns="http://www.w3.org/2000/svg" xmlns:ev="http://www.w3.org/2001/xml-events" xmlns:xlink="http://www.w3.org/1999/xlink"><defs /><rect fill="white" height="86.1160085982192" width="91.25775543041527" x="0" y="0" /><path d="M34.22803484289943,40.850346524130146 m-2.365371137857437,1.3110820949077606 l-1.1582406610250473,2.102516293525696 -0.00020959969333489425,5.03190279006958 l1.854386329650879,4.537678360939026 0.8821938931941986,1.5375098586082458 l3.099866211414337,2.152625620365143 3.2666778564453125,1.5026600658893585 l5.4220616817474365,1.6512048244476318 2.5082403421401978,0.4384821653366089 l5.801776647567749,-0.00016161655366886407 2.1343733370304108,-1.238355040550232 l3.783271312713623,-2.7106311917304993 3.139568865299225,-3.5635745525360107 l1.1544491350650787,-1.9095729291439056 0.7642024010419846,-2.36038938164711 l0.27493828907608986,-3.2617291808128357 -6.8096935749053955,-8.25728952884674 l-3.168502449989319,-1.9242127239704132 -3.0775192379951477,-0.7795022428035736 l-1.6891610622406006,-0.00016646572476020083 -5.129674077033997,4.013252854347229 l-1.053362712264061,1.0070528090000153 -5.466955900192261,-0.00019568222342059016 l-2.2181662917137146,0.5590175092220306 -0.905902087688446,-6.89014732837677 l7.827510671631899e-05,-5.592214465141296 0.7421980798244476,-3.207189440727234 l3.3735832571983337,5.6181734800338745 0.6438727676868439,1.042155995965004 l2.7551746368408203,4.447029531002045 m8.298509120941162,-1.3374850153923035 l5.4948800802230835,-5.799919366836548 3.3541670441627502,-2.1979495882987976 l0.005201706662774086,4.507187604904175 -0.20900001749396324,1.2766820192337036 l-0.11000369675457478,1.5054553747177124 0.22970769554376602,1.7586492002010345 l-0.00029508009902201593,1.4334437251091003 -0.5701311305165291,-0.014299716567620635 m-21.464314460754395,9.363303184509277 l-1.9163092970848083,0.6774072349071503 0.3029296547174454,0.8837556093931198 l1.8767394125461578,-4.043448825541418e-05 1.0071802139282227,-0.11913124471902847 l-0.0002149358442693483,-0.2409897744655609 -0.2187524549663067,-9.815057637752034e-05 m19.356813430786133,-3.7807312607765198 l0.12772602960467339,2.072708308696747 0.7801935821771622,-0.5403287336230278 l-0.38465071469545364,-2.0208515226840973 m-12.638282775878906,10.513224601745605 l1.4821207523345947,0.25564176961779594 8.008350729942322,0.00012276070265215822 l6.595545411109924,-1.4841194450855255 4.063455760478973,-2.2489187121391296 l-0.1377881783992052,-0.6407331675291061 m-14.089138507843018,7.168560028076172 l1.6565412282943726,-0.7616733014583588 2.530597150325775,9.180070264847018e-05 l3.2891711592674255,0.3355979174375534 2.8212112188339233,0.0001216246255353326 l1.3925628364086151,0.46464771032333374 m-17.978442907333374,-4.765439331531525 l-3.3612817525863647,0.00031878236768534407 -1.6309347748756409,0.30306436121463776 l-3.5952481627464294,-0.31290534883737564 -10.551681518554688,0.00012239101124578156 l-1.603323221206665,0.5931012332439423 m19.96872067451477,1.9295445084571838 l-2.382911294698715,0.3180044889450073 -1.8929077684879303,0.5621720477938652 l-8.091275691986084,2.774226665496826 -4.648818671703339,1.5436191856861115 l-0.00012220418284414336,-0.3508485481142998 m14.134210348129272,-1.5702101588249207 l0.4444712772965431,0.00010954287972708698 0.2958058752119541,0.17144372686743736 l1.2983937561511993,1.637667566537857 3.3714663982391357,-0.35318419337272644 l3.6779728531837463,-1.1399003863334656 1.7153537273406982,-1.692415177822113 " fill="none" stroke="black" stroke-width="1" /></svg>