<?xml version="1.0" encoding="utf-8" ?>
<svg baseProfile="full" height="76.07027493160217" version="1.1" width="109.4725568027934" xmlns="http://www.w3.org/2000/svg" xmlns:ev="http://www.w3.org/2001/xml-events" xmlns:xlink="http://www.w3.org/1999/xlink"><defs /><rect fill="white" height="76.07027493160217" width="109.4725568027934" x="0" y="0" /><path d="M31.276688028438002,33.19634731341807 m-0.6935326009988785,0.9048987925052643 l-2.21220999956131,3.6587491631507874 -1.6812525689601898,4.010384380817413 l-0.9364407509565353,3.2177314162254333 -0.7531965523958206,2.615041434764862 l-5.555556526815053e-05,1.1688115447759628 2.091408371925354,0.17913229763507843 l4.382795095443726,0.13216475024819374 2.165004014968872,0.174831822514534 l0.7620030641555786,-0.31076306477189064 0.009458436979912221,-4.118135571479797 l1.814827173948288,-0.828000009059906 1.0217387229204178,-0.020148202311247587 l1.2161524593830109,0.401303693652153 0.9966140985488892,0.8199544250965118 l0.9457585960626602,1.937699019908905 -0.43061744421720505,2.9455548524856567 l-0.23598574101924896,0.6316912919282913 3.4710529446601868,0.00013253678844193928 l16.972122192382812,-0.029715606942772865 1.3610047101974487,-0.03843712620437145 l0.5441462621092796,-0.7961558550596237 1.4835408329963684,-2.582605481147766 l1.8211038410663605,-1.1118564009666443 2.8822454810142517,-0.19790710881352425 l2.1372725069522858,0.8005888015031815 0.33498432487249374,0.7586695998907089 l-0.21665191277861595,2.636110484600067 0.672580897808075,0.15766294673085213 l2.989659011363983,0.02101203426718712 6.357503533363342,0.7355267554521561 l0.6210605800151825,-0.448993481695652 -0.08954331278800964,-7.069584131240845 l0.6835696846246719,-1.0602279007434845 2.3952849209308624,-9.034764170646667 l0.3124634549021721,-2.712971866130829 -0.7098008692264557,-2.291564792394638 l-1.3333134353160858,-0.5893884599208832 -7.372040748596191,-0.31937118619680405 l-4.847775101661682,0.15677643939852715 -21.49064064025879,0.26003411039710045 l-0.17950423061847687,2.573062777519226 -3.2244521379470825,4.763023853302002 l-2.497255802154541,0.8039107918739319 -2.1440282464027405,-1.4027582108974457 l-7.080537676811218,-3.0417421460151672 -1.8172015249729156,-0.559113547205925 m0.8164985477924347,1.7200841009616852 l3.2886770367622375,0.30866092070937157 10.633629560470581,-0.6154289469122887 l5.840034484863281,-0.10340329259634018 3.9254549145698547,-0.1245187409222126 l13.58397126197815,-0.3416983410716057 7.528780698776245,-0.7621017843484879 l1.455359011888504,-1.4518312809741474e-05 m-40.64158916473389,6.746968030929565 l3.0873095989227295,-0.00032235711842076853 0.6899546086788177,-3.2630717754364014 l0.8753401786088943,-5.421889424324036 0.2660510689020157,-1.6066564619541168 l0.25122981518507004,-2.6332104206085205 m7.912362217903137,5.458989143371582 l-0.8207438886165619,3.185366690158844 -0.42738523334264755,2.821657955646515 l0.004674397350754589,2.456987351179123 1.5451046824455261,9.87810199148953e-05 m5.375532507896423,-8.554967641830444 l-0.08179587312042713,7.913777232170105 m6.067658066749573,-8.314239978790283 l1.0803263634443283,10.74174165725708 0.5236635357141495,0.42761918157339096 m3.814239501953125,-12.28087306022644 l1.1013871431350708,8.3616441488266 0.3354562073945999,3.487965762615204 m-21.174821853637695,-2.1110564470291138 l3.1742680072784424,0.661214143037796 3.861934542655945,1.5092013776302338 l-0.37217121571302414,1.4307942986488342 " fill="none" stroke="black" stroke-width="1" /></svg>